<svg width="101" height="20" fill="none" xmlns="http://www.w3.org/2000/svg"><g clip-path="url(#clip0)" fill="#111"><path d="M2.15 17.5a6.865 6.865 0 01-1.265-4.308V6.808A6.95 6.95 0 012.07 2.423c.87-1 2.213-1.461 4.189-1.461s3.24.461 4.03 1.307a5.422 5.422 0 011.186 3.77v1.538H7.602v-1.77a3.693 3.693 0 00-.237-1.538 1.12 1.12 0 00-.456-.472 1.163 1.163 0 00-.65-.143c-.553 0-.948.154-1.107.538a4.846 4.846 0 00-.237 1.693v8.23a3.112 3.112 0 00.317 1.616c.158.384.553.538 1.106.538s.87-.154 1.027-.538c.18-.52.26-1.068.237-1.616V12.27h3.873v1.539a5.774 5.774 0 01-1.186 3.846c-.79.923-2.133 1.384-4.03 1.384-1.897-.076-3.32-.538-4.11-1.538zM16.886.962h4.505L24.71 18.5h-3.636l-.632-3.692h-2.608l-.633 3.692h-3.714L16.886.962zm3.24 11.538l-.948-6.846-.948 6.846h1.896zm9.271-8.615H26.71V.962h9.405v2.846h-2.687V18.5h-4.03V3.885zM38.194.962h6.954v1.846h-4.504v5.769h3.635v1.77h-3.635v6.46h4.504v1.77h-7.033V.962h.079zm8.954 0h1.739l5.137 11.615V.962h2.055V18.5h-1.58l-5.217-12v12h-2.134V.962zm10.931 0h6.954v1.846H60.53v5.769h3.635v1.77H60.53v6.46h4.504v1.77H58.08V.962zm9.033.014h3.636a6.451 6.451 0 014.03 1.077c.87.692 1.265 1.923 1.265 3.539 0 2.23-.712 3.615-2.213 4.076l2.529 8.77h-2.45l-2.371-8.231h-1.976v8.23h-2.529V.978h.08zm3.478 7.539a3.523 3.523 0 002.291-.616c.475-.384.712-1.154.712-2.307a4.846 4.846 0 00-.237-1.693 1.975 1.975 0 00-.87-.923 3.69 3.69 0 00-1.738-.308H69.64v5.77h.949v.077zm8.89 8.762a7.613 7.613 0 01-1.106-4.461V6.97a12.271 12.271 0 01.396-3.308 3.916 3.916 0 011.501-2A5.27 5.27 0 0183.195.97c1.66 0 2.845.384 3.557 1.23a5.77 5.77 0 011.106 3.847v.615h-2.37v-.538a11.03 11.03 0 00-.159-1.923 1.533 1.533 0 00-.632-1 2.493 2.493 0 00-1.502-.385 2.417 2.417 0 00-1.58.461c-.186.153-.338.34-.447.552a1.703 1.703 0 00-.186.68 14.01 14.01 0 00-.158 2.076v6.539a6.818 6.818 0 00.475 2.923c.316.615.948.846 1.896.846.375.045.755-.018 1.092-.182.338-.165.618-.422.805-.741a6.912 6.912 0 00.553-3.077v-1.23h-2.292v-1.77h4.584v8.692h-1.58l-.238-2a3.143 3.143 0 01-1.225 1.658 3.288 3.288 0 01-2.015.573 4.045 4.045 0 01-1.898-.352 3.934 3.934 0 01-1.5-1.186zm14.33-5.007L89.937.961h2.371l2.766 8.461 2.687-8.46h2.371l-3.873 11.307v6.154h-2.37V12.27h-.08z"/></g><path stroke="#000" d="M1.368 1.462h98.264v17.077H1.368z"/><defs><clipPath id="clip0"/></defs></svg>